<svg version="1.1" id="Layer_1" xmlns="http://www.w3.org/2000/svg" xmlns:xlink="http://www.w3.org/1999/xlink" x="0px" y="0px"
	 width="100%" viewBox="0 0 464 528" enable-background="new 0 0 464 528" xml:space="preserve">
<path fill="#000000" opacity="1.000000" stroke="none" 
	d="
M408.047668,470.257782 
	C374.006927,487.312012 332.366638,471.104492 323.239319,433.940643 
	C317.824615,411.893463 326.677155,388.097260 350.294922,378.728180 
	C357.540131,375.853973 359.602417,372.561737 358.506165,366.920837 
	C357.501038,361.748810 352.868469,358.796021 346.051025,358.248779 
	C330.605469,357.009003 319.091736,363.878662 310.935333,376.140686 
	C279.891510,422.810577 302.872070,489.431641 363.229767,498.780396 
	C380.303955,501.425018 396.298126,497.968048 410.531219,487.716858 
	C412.258942,486.472504 413.932526,484.584656 416.307190,485.823181 
	C418.602081,487.020081 418.405792,489.448151 418.312347,491.602417 
	C418.111145,496.240509 418.629547,500.863159 417.748413,505.535461 
	C416.946198,509.789246 414.578796,510.918365 410.783112,510.910797 
	C391.644440,510.872559 372.505707,510.896790 353.366974,510.895355 
	C315.712097,510.892517 278.057190,510.890472 240.402313,510.874359 
	C238.238235,510.873444 236.070572,510.635986 233.910904,510.705383 
	C229.252670,510.854980 226.833893,508.662140 226.287949,504.057861 
	C225.168716,494.618591 229.698914,477.985016 240.953751,473.685242 
	C241.419144,473.507477 241.849243,473.237579 242.314240,473.058441 
	C250.620682,469.858673 250.523422,469.858521 250.685593,461.085815 
	C251.031555,442.371155 252.653656,423.873474 260.742188,406.579651 
	C262.935242,401.890778 262.818420,396.888062 262.817780,391.882751 
	C262.809723,328.390411 262.774231,264.898010 262.862976,201.405762 
	C262.880890,188.584229 263.267853,175.759323 263.704163,162.943451 
	C264.069977,152.198914 268.514130,147.614624 279.290985,146.718628 
	C283.291901,146.385986 285.568787,144.704987 285.614166,140.606918 
	C285.663727,136.132736 282.355347,136.373352 279.296021,136.228897 
	C254.821716,135.073288 230.348785,134.887741 205.870560,136.146378 
	C202.701920,136.309311 199.594009,136.368057 199.444946,140.582016 
	C199.306778,144.487961 201.616165,146.165680 205.279739,146.653610 
	C217.235245,148.245895 220.971054,152.968018 221.382416,165.669464 
	C222.984879,215.148651 221.872314,264.638824 222.118240,314.122925 
	C222.269806,344.618195 222.162491,375.115570 222.018845,405.611267 
	C221.938034,422.767792 221.945831,439.940796 221.174866,457.073090 
	C220.511276,471.819397 219.530228,486.602203 216.285400,501.094208 
	C214.480820,509.153870 212.753723,510.754150 204.461380,510.826782 
	C194.303680,510.915710 184.143005,510.594452 173.983612,510.594971 
	C170.168274,510.595154 168.757523,508.949066 168.613113,505.174683 
	C168.045258,490.331909 174.674606,479.398254 187.607422,474.332886 
	C198.598160,470.028137 200.442154,467.280670 200.668274,455.181244 
	C201.278030,422.553650 196.862198,390.940216 183.305374,360.832489 
	C176.293686,345.260590 173.085037,328.646729 172.442932,311.454376 
	C172.169907,304.143921 171.687286,296.831696 171.824387,289.514313 
	C171.893768,285.811188 170.224854,284.352203 166.769409,284.350403 
	C146.271896,284.339722 125.774284,284.351227 105.276924,284.285767 
	C100.726181,284.271240 100.328438,287.106873 100.333855,290.619415 
	C100.372383,315.616455 100.306892,340.613739 100.375816,365.610626 
	C100.393677,372.088043 100.211456,378.545441 101.101349,385.045471 
	C102.830635,397.676636 104.212898,399.494690 117.296547,401.691833 
	C122.041565,402.488708 124.326546,404.902924 124.206902,409.742065 
	C124.098129,414.141541 122.433601,416.451263 117.577675,416.387177 
	C103.915016,416.206787 90.248360,416.325439 76.583275,416.334229 
	C65.251274,416.341553 53.916267,416.212738 42.588676,416.443146 
	C37.739864,416.541779 36.071156,414.044647 35.696217,409.850464 
	C35.219769,404.520721 36.527805,402.728363 41.543659,401.867920 
	C42.526169,401.699341 43.542374,401.726929 44.524708,401.557648 
	C55.095921,399.735931 58.489750,395.968231 58.636024,385.134338 
	C59.630157,311.503510 59.145912,237.871445 58.636761,164.240387 
	C58.562428,153.490799 54.955238,149.804123 44.319263,148.175308 
	C41.190052,147.696091 37.443035,147.977631 36.691936,143.333008 
	C35.550415,136.274094 36.793179,134.620529 43.918213,134.615112 
	C67.748657,134.597031 91.579124,134.606033 115.409569,134.621506 
	C118.572937,134.623566 121.929382,134.161850 122.353745,138.918686 
	C122.907158,145.121994 121.942574,146.909775 116.708473,148.099258 
	C114.927635,148.503952 113.143570,148.901627 111.348351,149.234436 
	C106.507774,150.131882 103.683655,153.059540 102.860817,157.837936 
	C102.241592,161.433899 101.474594,165.062561 101.414429,168.687317 
	C100.980331,194.841827 100.688385,220.998810 100.400566,247.155548 
	C100.316795,254.768799 101.180412,255.627411 108.544426,255.635803 
	C128.542068,255.658615 148.539780,255.665024 168.537415,255.641312 
	C174.472427,255.634277 175.586533,254.582016 175.639175,248.679474 
	C175.731003,238.379562 176.731628,228.064117 174.703705,217.804962 
	C172.545746,206.887924 166.667969,197.757111 160.797409,188.692093 
	C150.351318,172.561752 148.295624,155.024780 151.205826,136.526474 
	C151.798264,132.760681 152.832642,129.062668 153.383331,125.292519 
	C153.887482,121.841042 154.066177,118.364449 152.744766,114.952103 
	C144.568619,93.838097 141.781189,71.873955 142.756439,49.377762 
	C142.934830,45.262562 143.641342,41.111458 144.618927,37.102478 
	C146.414307,29.739838 149.991150,27.981119 157.195145,30.693605 
	C165.432053,33.795017 172.218781,39.250786 178.973221,44.669098 
	C189.384552,53.020901 199.116577,62.143944 208.272125,71.841743 
	C211.033447,74.766602 213.472824,75.379845 217.420746,74.393150 
	C239.248413,68.937775 261.181427,68.561081 282.955536,74.675285 
	C286.988647,75.807793 289.194122,74.143188 291.646729,71.743546 
	C303.684296,59.966080 316.115051,48.635185 329.725342,38.668816 
	C334.569214,35.121803 339.528687,31.747484 345.248047,29.720135 
	C350.059296,28.014673 353.353882,29.362135 355.210144,34.140915 
	C356.222107,36.746178 357.121948,39.566074 357.233734,42.323177 
	C358.223694,66.736633 356.429840,90.876404 348.683014,114.228317 
	C346.666107,120.308075 346.115723,125.927345 348.208679,132.149597 
	C353.784576,148.726166 351.656433,164.971237 344.877228,180.766495 
	C340.456360,191.066895 338.102386,201.798065 339.572327,212.898026 
	C341.354706,226.357620 349.153015,236.105515 360.741211,242.769104 
	C379.028809,253.285095 393.974457,267.185974 404.716919,285.425354 
	C418.044434,308.053741 426.535614,332.386383 430.411865,358.366058 
	C432.626831,373.211212 433.784454,388.126373 433.204193,403.110779 
	C432.637573,417.743408 431.154572,432.297485 426.273804,446.259064 
	C422.839661,456.082397 417.724243,464.685364 408.047668,470.257782 
z"/>
</svg>